# xmcd
#
# Track frame offsets: 
#        150
#        21310
#        38962
#        56212
#        72542
#        88177
#        108027
#        127217
#        139582
#        158152
#        172645
#
# Disc length: 2546 seconds
#
# Revision: 1
# Processed by: cddbd v1.5.1PL2 Copyright (c) Steve Scherf et al.
# Submitted via: ExactAudioCopy v0.95b4
#
DISCID=9709f00b
DTITLE=Julio iglesias - La carretera [Italia]
DYEAR=1995
DGENRE=Latin
TTITLE0=La carretera
TTITLE1=Cosas la vida
TTITLE2=Baila morena
TTITLE3=Derroche
TTITLE4=El último verano
TTITLE5=Agua dulce,agua salá
TTITLE6=Sin excusa ni rodeos
TTITLE7=Mal de amores
TTITLE8=Rumbas [medley]
TTITLE9=Vuela alto
TTITLE10=Su questa strada
EXTD=
EXTT0=
EXTT1=
EXTT2=
EXTT3=
EXTT4=
EXTT5=
EXTT6=
EXTT7=
EXTT8=
EXTT9=
EXTT10=
PLAYORDER=
